# xmcd CD database file
#
# Track frame offsets:
#	150
#	14743
#	32675
#	55848
#	77649
#	103745
#	120180
#	140437
#	163202
#	180576
#	201684
#
# Disc length: 2951 seconds
#
# Revision: 2
# Processed by: cddbd v1.5.1PL0 Copyright (c) Steve Scherf et al.
# Submitted via: CDex 1.51
#
DISCID=960b850b
DTITLE=U2 - How To Dismantle An Atomic Bomb
DYEAR=2004
DGENRE=Rock
TTITLE0=Vertigo
TTITLE1=Miracle Drug
TTITLE2=Sometimes You Can't Make It On Your Own
TTITLE3=Love And Peace Or Else
TTITLE4=City Of Blinding Lights
TTITLE5=All Because Of You
TTITLE6=A Man And A Woman
TTITLE7=Crumbs From Your Table
TTITLE8=One Step Closer
TTITLE9=Original Of The Species
TTITLE10=Yahweh
EXTD=9867829 YEAR: 2004
EXTT0=
EXTT1=
EXTT2=
EXTT3=
EXTT4=
EXTT5=
EXTT6=
EXTT7=
EXTT8=
EXTT9=
EXTT10=
PLAYORDER=
